# xmcd CD database file
#
# Track frame offsets:
#	150
#	24780
#	40157
#
# Disc length: 804 seconds
#
# Revision: 0
# Processed by: cddbd v1.5PL3 Copyright (c) Steve Scherf et al.
# Submitted via: CDex 1.51
#
DISCID=15032203
DTITLE=拝郷メイコ - メロディ
DYEAR=2002
DGENRE=JPop
TTITLE0=メロディ
TTITLE1=赤い星
TTITLE2=ななしのおさる
EXTD=YEAR: 2002
EXTT0=
EXTT1=
EXTT2=
PLAYORDER=
